<svg xmlns="http://www.w3.org/2000/svg" width="24" height="24" viewBox="0 0 24 24">
  <g id="wp" transform="translate(-0.333)">
    <rect id="Rectangle_1802" data-name="Rectangle 1802" width="24" height="24" transform="translate(0.333)" fill="none" opacity="0"/>
    <path id="Path_21" data-name="Path 21" d="M-4020.681,20.633a10.292,10.292,0,0,1-5.286-1.456l-4.676,1.3,1.329-4.5A10.264,10.264,0,0,1-4031,10.319a10.252,10.252,0,0,1,3.022-7.3,10.251,10.251,0,0,1,7.3-3.022,10.253,10.253,0,0,1,7.3,3.022,10.244,10.244,0,0,1,3.022,7.293,10.251,10.251,0,0,1-3.022,7.3A10.251,10.251,0,0,1-4020.681,20.633ZM-4024.5,5.17a2.467,2.467,0,0,0-.315.015,1.254,1.254,0,0,0-.789.5,3.358,3.358,0,0,0-.594,1.079l-.019.061,0,.005-.018.056a3.019,3.019,0,0,0,.068,1.843,10.1,10.1,0,0,0,.909,1.919,10.52,10.52,0,0,0,2.051,2.421,9.756,9.756,0,0,0,2.534,1.809,8.787,8.787,0,0,0,2.756.8c.086.008.175.012.262.012a3.057,3.057,0,0,0,1.084-.2,2.828,2.828,0,0,0,.662-.357,2.139,2.139,0,0,0,.887-1.409v-.013a2.563,2.563,0,0,0,.013-.56.377.377,0,0,0-.217-.31l-1.567-.718-.3-.14-.63-.289a.238.238,0,0,0-.1-.022.23.23,0,0,0-.177.081l-1.129,1.274a.315.315,0,0,1-.236.108.3.3,0,0,1-.117-.024,8,8,0,0,1-2.175-1.337,8.118,8.118,0,0,1-1.83-2.272,1.983,1.983,0,0,0,.777-1.015.012.012,0,0,1,0-.009,1.712,1.712,0,0,0-.039-1.121,11.827,11.827,0,0,0-.849-1.936c-.024-.024-.052-.049-.062-.059a.755.755,0,0,0-.468-.187c-.059,0-.124,0-.191,0Z" transform="translate(4032.682 1.683)" fill="#fff"/>
  </g>
</svg>
