<svg xmlns="http://www.w3.org/2000/svg" width="20" height="20" viewBox="0 0 20 20">
  <g id="ins" transform="translate(-392 -114)">
    <rect id="Rectangle_1784" data-name="Rectangle 1784" width="20" height="20" transform="translate(392 114)" fill="none"/>
    <g id="instagram_4_" data-name="instagram (4)" transform="translate(394.047 116.047)">
      <path id="Path_4902" data-name="Path 4902" d="M-1180.854-27.632c-1.506-1.507-1.334-3.52-1.334-6.613,0-3.023-.2-5.085,1.334-6.614a4.751,4.751,0,0,1,3.338-1.286c1.464-.065,5.09-.068,6.553,0,2.994.137,4.492,1.831,4.623,4.623.065,1.465.069,5.089,0,6.553-.109,2.366-1.22,3.682-2.694,4.255-1.083.42-2.141.417-5.206.417-.62,0-1.2.009-1.746.009C-1178.071-26.289-1179.637-26.415-1180.854-27.632Zm12.207-1.011c.985-.99.923-2.327.924-5.6,0-2.122-.009-2.374-.047-3.212-.167-3.675-2.937-3.305-6.469-3.305l-.03-.02c-2.125,0-2.374.01-3.218.04-3.676.188-3.3,2.825-3.3,6.487,0,2.706-.2,4.49.915,5.6.969.972,2.3.924,5.612.924C-1171.041-27.73-1169.65-27.641-1168.646-28.643Zm-9.675-5.6a4.081,4.081,0,0,1,4.082-4.081,4.081,4.081,0,0,1,4.081,4.081,4.082,4.082,0,0,1-4.081,4.081A4.081,4.081,0,0,1-1178.322-34.245Zm1.433,0a2.648,2.648,0,0,0,2.649,2.649,2.647,2.647,0,0,0,2.649-2.649,2.649,2.649,0,0,0-2.649-2.65A2.649,2.649,0,0,0-1176.889-34.245Zm5.938-4.242a.954.954,0,0,1,.954-.954.954.954,0,0,1,.954.954.954.954,0,0,1-.954.954A.954.954,0,0,1-1170.951-38.487Z" transform="translate(1182.196 42.195)" fill="#2f343f"/>
    </g>
  </g>
</svg>
