<svg xmlns="http://www.w3.org/2000/svg" width="136" height="40" viewBox="0 0 136 40">
  <g id="Group_5" data-name="Group 5" transform="translate(-1048 -252)">
    <rect id="Rectangle_1" data-name="Rectangle 1" width="136" height="40" transform="translate(1048 252)" fill="none"/>
    <path id="Path_11" data-name="Path 11" d="M703.1,248.392H690.406v-.627l2.35-.862V222.695l-2.351-.627v-.627l8.5-.823.666.705-.118,2.194.118.117a7.907,7.907,0,0,1,6.033-2.82,5.845,5.845,0,0,1,5.132,2.586,12.092,12.092,0,0,1,1.763,6.894c0,3.327-.817,5.93-2.429,7.737a8.844,8.844,0,0,1-6.934,2.722,7.478,7.478,0,0,1-3.565-.744V246.9l3.525.862v.626Zm-.744-25.5a3.586,3.586,0,0,0-2.781,1.724v14.847a4.569,4.569,0,0,0,2.233.666,3.115,3.115,0,0,0,2.879-2.253,18.2,18.2,0,0,0,.96-6.757,17.583,17.583,0,0,0-.842-5.935C704.243,223.661,703.42,222.89,702.354,222.89Zm17.981,17.9a5.527,5.527,0,0,1-3.839-1.215,4.4,4.4,0,0,1-1.332-3.408,4.588,4.588,0,0,1,.274-1.626,5.652,5.652,0,0,1,.646-1.253,3.557,3.557,0,0,1,1.254-1c.581-.31,1.115-.567,1.587-.764a15.737,15.737,0,0,1,2.154-.646c.961-.234,1.792-.419,2.468-.548s1.7-.33,3.016-.588c.332-.06.524-.1.627-.117v-3.957a5.62,5.62,0,0,0-.744-3.095,2.465,2.465,0,0,0-2.194-1.136,3.634,3.634,0,0,0-1.685.51v3.172a4.177,4.177,0,0,1-.9,2.88,3.17,3.17,0,0,1-2.468,1,3.438,3.438,0,0,1-2.468-.9,3.171,3.171,0,0,1-.94-2.39,3.653,3.653,0,0,1,1.351-2.88,7.3,7.3,0,0,1,3.173-1.567,18.358,18.358,0,0,1,4.015-.411c3.093,0,5.5.567,7.149,1.685a5.151,5.151,0,0,1,2.488,4.426v11.674c0,.52.277.783.823.783a1.7,1.7,0,0,0,1.253-.471l.353.353c-.911.91-2.7,1.371-5.328,1.371a5.19,5.19,0,0,1-2.566-.548,2.694,2.694,0,0,1-1.194-2.077l-.118-.117A9.835,9.835,0,0,1,720.335,240.793Zm6.855-10.537c-.827.129-1.4.227-1.7.293s-.736.186-1.273.353a2.444,2.444,0,0,0-1.078.548,9.5,9.5,0,0,0-.627.842,3.01,3.01,0,0,0-.47,1.332,15.808,15.808,0,0,0-.1,1.92c0,2.106.685,3.173,2.037,3.173a4.415,4.415,0,0,0,3.212-1.763Zm-44.3,10.5a7.276,7.276,0,0,1-5.015-1.587,5.414,5.414,0,0,1-1.762-4.211V221.99h-2.272v-.471a17.163,17.163,0,0,0,8.422-5.484l.666.666v4.27H689v1.019h-6.072v12.966c0,2.677,1,4.034,2.977,4.034a3.969,3.969,0,0,0,3.016-1.253l.431.47A8.549,8.549,0,0,1,682.885,240.753Zm87-.2H758.372v-.627l2.35-.862V214.076l-2.35-.627v-.627l8.5-.822.666.705v18.176l5.341-5.292,1.341,2.523L780,239.147l2.194.784v.626h-8.422l-4.975-9.715-1.253,1.332v6.895l2.35.862v.627Zm-19.979,0H737.219v-.627l2.35-.862V222.695l-2.35-.627v-.627l8.5-.823.666.705-.118,2.507.118.118a2.259,2.259,0,0,1,.157-.333,6.755,6.755,0,0,1,.548-.764,5.948,5.948,0,0,1,.94-.959,5.029,5.029,0,0,1,1.41-.744,5.518,5.518,0,0,1,1.919-.333,6.135,6.135,0,0,1,3.721,1.214,4.213,4.213,0,0,1,1.645,3.6,3.6,3.6,0,0,1-.94,2.683,3.5,3.5,0,0,1-2.546.921,3.388,3.388,0,0,1-2.605-1.038,4.155,4.155,0,0,1-.96-2.918v-3.056a.757.757,0,0,0-.391-.118,2.084,2.084,0,0,0-1.508.783,5.211,5.211,0,0,0-1.038,1.567l-.352.783v13.828l3.525.862v.626Zm-77.015,0H661.379v-.627l2.351-.862V222.695l-2.35-.627v-.627l8.5-.823.666.705v17.746l2.35.862v.626Zm-12.379,0H649v-.627l2.35-.862V214.076L649,213.45v-.627l8.5-.822.666.705v26.363l2.351.862v.626Z" transform="translate(400.492 42.035)" fill="#2f343f" stroke="rgba(0,0,0,0)" stroke-width="1"/>
    <path id="Path_10" data-name="Path 10" d="M3.96,0A3.937,3.937,0,0,1,7.92,3.914,3.937,3.937,0,0,1,3.96,7.828,3.937,3.937,0,0,1,0,3.914,3.937,3.937,0,0,1,3.96,0Z" transform="translate(1063.526 253.679)" fill="#bd7e4a"/>
    <path id="Path_12" data-name="Path 12" d="M3.96,0A3.937,3.937,0,0,1,7.92,3.914,3.937,3.937,0,0,1,3.96,7.828,3.937,3.937,0,0,1,0,3.914,3.937,3.937,0,0,1,3.96,0Z" transform="translate(1174.761 261.522)" fill="#bd7e4a"/>
  </g>
</svg>
