<svg xmlns="http://www.w3.org/2000/svg" width="24" height="24" viewBox="0 0 24 24">
  <g id="menu" transform="translate(-1015 -139)">
    <rect id="Rectangle_5" data-name="Rectangle 5" width="24" height="24" transform="translate(1015 139)" fill="none"/>
    <path id="Path_32" data-name="Path 32" d="M-2496.282,74.791a.718.718,0,0,1-.717-.717.718.718,0,0,1,.717-.718h20.033a.719.719,0,0,1,.718.718.719.719,0,0,1-.718.717Zm0-6.678A.717.717,0,0,1-2497,67.4a.718.718,0,0,1,.717-.718h20.033a.719.719,0,0,1,.718.718.718.718,0,0,1-.718.717Zm0-6.677a.718.718,0,0,1-.717-.718.717.717,0,0,1,.717-.717h20.033a.718.718,0,0,1,.718.717.719.719,0,0,1-.718.718Z" transform="translate(3513.266 83.605)"/>
  </g>
</svg>
