<svg xmlns="http://www.w3.org/2000/svg" width="24" height="24" viewBox="0 0 24 24">
  <g id="x" transform="translate(-1015 -139)">
    <rect id="Rectangle_5" data-name="Rectangle 5" width="24" height="24" transform="translate(1015 139)" fill="none"/>
    <g id="_02_User" data-name="02 User" transform="translate(1018.164 142.161)">
      <path id="Path_4989" data-name="Path 4989" d="M.858,17.681a.863.863,0,0,1-.611-1.474L16.2.25a.864.864,0,0,1,1.221,1.221L1.468,17.428a.861.861,0,0,1-.611.253Z" transform="translate(0 0)" fill="#fff"/>
      <path id="Path_4990" data-name="Path 4990" d="M16.818,17.681a.861.861,0,0,1-.611-.253L.25,1.471A.864.864,0,0,1,1.471.25L17.428,16.207a.863.863,0,0,1-.611,1.474Z" transform="translate(-0.003 0)" fill="#fff"/>
    </g>
  </g>
</svg>
