<svg xmlns="http://www.w3.org/2000/svg" width="20" height="20" viewBox="0 0 20 20">
  <g id="yt" transform="translate(-392 -114)">
    <rect id="Rectangle_1784" data-name="Rectangle 1784" width="20" height="20" transform="translate(392 114)" fill="none"/>
    <path id="youtube_1_" data-name="youtube (1)" d="M17.527-4.122A2.242,2.242,0,0,0,15.949-5.7a52.378,52.378,0,0,0-7-.383,54.418,54.418,0,0,0-7,.369A2.287,2.287,0,0,0,.369-4.122,23.622,23.622,0,0,0,0,.183a23.535,23.535,0,0,0,.369,4.3A2.242,2.242,0,0,0,1.946,6.064a52.473,52.473,0,0,0,7,.383,54.419,54.419,0,0,0,7-.369A2.242,2.242,0,0,0,17.527,4.5,23.63,23.63,0,0,0,17.9.2a22.423,22.423,0,0,0-.369-4.319ZM7.164,2.865V-2.5L11.822.183Zm0,0" transform="translate(393.052 123.818)" fill="#2f343f"/>
  </g>
</svg>
