<svg xmlns="http://www.w3.org/2000/svg" width="20" height="20" viewBox="0 0 20 20">
  <g id="book" transform="translate(-1531.281 -33.281)">
    <rect id="Rectangle_1787" data-name="Rectangle 1787" width="20" height="20" transform="translate(1531.281 33.281)" fill="none"/>
    <g id="book-2" data-name="book" transform="translate(1501.973 34.949)">
      <path id="Path_4924" data-name="Path 4924" d="M-1214.971-70.746h-11.975a.521.521,0,0,1-.521-.521V-84.5a1.451,1.451,0,0,1,.368-.889l1.651-1.651a1.449,1.449,0,0,1,.89-.369h11.672v14.581h-1.042v-13.54h-10.719l-1.041,1.041h10.719v14.581h0Zm-10.06-7.362a3.889,3.889,0,0,0,3.885,3.884,3.888,3.888,0,0,0,3.884-3.884,3.889,3.889,0,0,0-3.884-3.885A3.89,3.89,0,0,0-1225.031-78.108Zm2.461,1.739a.483.483,0,0,1-.243-.419v-2.64a.484.484,0,0,1,.243-.419.5.5,0,0,1,.5,0l2.339,1.32a.483.483,0,0,1,.249.423.483.483,0,0,1-.249.423l-2.339,1.32a.5.5,0,0,1-.248.066A.493.493,0,0,1-1222.57-76.369Z" transform="translate(1259.484 87.41)" fill="#fff"/>
    </g>
  </g>
</svg>
