<svg xmlns="http://www.w3.org/2000/svg" width="18" height="18" viewBox="0 0 18 18">
  <g id="Group_3333" data-name="Group 3333" transform="translate(-887 -671)">
    <rect id="Rectangle_1918" data-name="Rectangle 1918" width="18" height="18" transform="translate(887 671)" fill="none"/>
    <path id="Path_5382" data-name="Path 5382" d="M1.256,2.438c.4,0,.631-.207.782-.682L3.166-1.78H8.237L9.374,1.757c.151.474.382.682.782.682a.764.764,0,0,0,.8-.78,1.585,1.585,0,0,0-.1-.494L6.727-11.245c-.2-.583-.515-.85-1-.85a1.05,1.05,0,0,0-1.048.86L.554,1.164a1.585,1.585,0,0,0-.1.494A.764.764,0,0,0,1.256,2.438Zm2.372-5.73,2.052-6.5h.053l2.052,6.5Z" transform="translate(890.294 684.828)" fill="#0e1013"/>
  </g>
</svg>
