<svg xmlns="http://www.w3.org/2000/svg" width="24" height="24" viewBox="0 0 24 24">
  <g id="msg" transform="translate(0.333)">
    <rect id="Rectangle_1802" data-name="Rectangle 1802" width="24" height="24" transform="translate(-0.333)" fill="none" opacity="0"/>
    <path id="Subtraction_1" data-name="Subtraction 1" d="M4.416,20.705a.825.825,0,0,1-.828-.8L3.531,18.06a.834.834,0,0,0-.28-.59A9.816,9.816,0,0,1,0,10.042,9.977,9.977,0,0,1,10.353,0,9.977,9.977,0,0,1,20.706,10.042,9.977,9.977,0,0,1,10.353,20.085a11.274,11.274,0,0,1-3-.4.833.833,0,0,0-.218-.029.819.819,0,0,0-.334.071l-2.054.906A.827.827,0,0,1,4.416,20.705ZM8.5,7.431a1.548,1.548,0,0,0-1.316.724L4.137,12.98a.473.473,0,0,0-.021.493.51.51,0,0,0,.438.265.488.488,0,0,0,.3-.1l3.268-2.481a.623.623,0,0,1,.748,0l2.418,1.815a1.554,1.554,0,0,0,2.246-.415l3.04-4.822a.472.472,0,0,0,.021-.492.51.51,0,0,0-.438-.266.489.489,0,0,0-.3.1L12.59,9.553a.621.621,0,0,1-.748,0L9.425,7.74A1.539,1.539,0,0,0,8.5,7.431Z" transform="translate(1.647 1.647)" fill="#fff"/>
  </g>
</svg>
