<svg id="twit" xmlns="http://www.w3.org/2000/svg" width="24" height="24" viewBox="0 0 24 24">
  <rect id="Rectangle_1802" data-name="Rectangle 1802" width="24" height="24" fill="none" opacity="0"/>
  <path id="iconfinder_317720_social_media_tweet_twitter_social_icon" data-name="iconfinder_317720_social media_tweet_twitter_social_icon" d="M20.639,4.985a8.4,8.4,0,0,1-2.432.666A4.25,4.25,0,0,0,20.07,3.31a8.479,8.479,0,0,1-2.689,1.027A4.239,4.239,0,0,0,10.165,8.2,12.023,12.023,0,0,1,1.437,3.775a4.241,4.241,0,0,0,1.31,5.654A4.221,4.221,0,0,1,.83,8.9c0,.017,0,.036,0,.053a4.237,4.237,0,0,0,3.4,4.153,4.254,4.254,0,0,1-1.911.073,4.239,4.239,0,0,0,3.954,2.94,8.493,8.493,0,0,1-5.258,1.813A8.557,8.557,0,0,1,0,17.872a11.994,11.994,0,0,0,6.49,1.9A11.965,11.965,0,0,0,18.539,7.725c0-.183-.005-.366-.013-.548A8.59,8.59,0,0,0,20.639,4.985Z" transform="translate(1.68 0.614)" fill="#fff"/>
</svg>
